<svg width="415" height="539" viewBox="0 0 415 539" fill="none" xmlns="http://www.w3.org/2000/svg">
<path fill-rule="evenodd" clip-rule="evenodd" d="M239.31 397.459L276.991 356.048C279.477 353.179 281.868 350.884 284.642 347.919L307.021 323.054C309.507 320.184 312.09 317.889 314.672 314.924L329.591 298.379C333.321 294.841 334.086 293.597 337.051 290.059C339.633 287.094 342.12 284.99 344.702 281.929C347.189 278.965 349.675 276.765 352.353 273.8C368.42 255.534 389.747 233.633 404.38 216.418C408.779 211.253 417.291 206.567 414.422 195.186C412.031 186.005 403.997 184.571 393.19 184.571C351.11 184.762 309.125 184.475 267.044 184.571C266.949 178.641 269.914 168.121 271.061 161.809L293.823 46.566C295.353 38.8193 296.883 30.9771 298.414 23.3261C299.944 15.5795 303.1 6.01574 296.31 1.61642C285.502 -5.26947 276.704 11.2758 267.044 24.2825L239.31 60.7203V397.364V397.459Z" fill="white"/>
<path fill-rule="evenodd" clip-rule="evenodd" d="M102.835 495.775C135.161 521.214 195.316 539.959 239.31 538.429V395.642V395.068V397.459L211.575 433.897C201.915 447 193.117 463.545 182.31 456.563C175.52 452.26 178.58 442.696 180.206 434.854C181.736 427.203 183.266 419.36 184.796 411.614L207.558 296.371C208.801 290.059 211.67 279.634 211.575 273.609C169.494 273.705 127.51 273.418 85.4292 273.609C74.5265 273.609 66.5886 272.27 64.1977 262.993C61.2329 251.612 69.8403 246.926 74.2396 241.762C88.8721 224.547 110.199 202.646 126.266 184.379C128.849 181.415 131.431 179.215 133.917 176.25C136.5 173.19 138.986 171.086 141.568 168.121C144.533 164.678 145.298 163.339 149.028 159.801L163.947 143.255C166.53 140.291 169.112 137.995 171.598 135.126L193.978 110.26C196.655 107.296 199.142 105 201.629 102.131L239.31 60.816H239.118C218.174 57.6599 174.085 68.6582 156.679 75.0659C132.77 83.8646 110.677 96.4887 93.9409 109.687C10.3539 175.198 -23.1192 284.32 16.7616 387.131C25.9428 410.753 39.2363 432.08 52.4343 448.817C59.6071 457.807 68.2145 466.892 75.7698 473.778C84.3772 481.429 92.4107 489.463 102.835 495.87V495.775Z" fill="white"/>
</svg>
