<svg width="621" height="213" viewBox="0 0 621 213" fill="none" xmlns="http://www.w3.org/2000/svg">
<path d="M196.791 149.832V56.3494H252.844V66.3914H208.112V97.9782H248.645V108.02H208.112V149.832H196.791ZM277.125 56.3494V149.832H265.805V56.3494H277.125ZM322.244 149.832H293.396V56.3494H323.522C332.59 56.3494 340.35 58.2209 346.801 61.9638C353.252 65.6763 358.197 71.0168 361.636 77.9854C365.074 84.9235 366.794 93.231 366.794 102.908C366.794 112.646 365.059 121.029 361.59 128.059C358.121 135.058 353.07 140.444 346.436 144.217C339.802 147.96 331.738 149.832 322.244 149.832ZM304.716 139.79H321.513C329.243 139.79 335.648 138.298 340.73 135.316C345.812 132.334 349.601 128.089 352.096 122.581C354.591 117.073 355.839 110.515 355.839 102.908C355.839 95.3612 354.606 88.8643 352.142 83.4172C349.677 77.9398 345.995 73.7404 341.095 70.819C336.196 67.8673 330.095 66.3914 322.791 66.3914H304.716V139.79ZM406.195 177.584C400.991 177.584 396.518 176.915 392.775 175.576C389.032 174.267 385.913 172.533 383.418 170.372C380.953 168.242 378.99 165.96 377.53 163.525L386.111 157.5C387.085 158.778 388.317 160.239 389.808 161.882C391.299 163.556 393.338 165.001 395.925 166.218C398.542 167.466 401.965 168.09 406.195 168.09C411.855 168.09 416.526 166.72 420.208 163.982C423.89 161.243 425.731 156.952 425.731 151.11V136.868H424.818C424.027 138.146 422.901 139.729 421.441 141.615C420.01 143.472 417.941 145.13 415.233 146.591C412.555 148.021 408.934 148.736 404.369 148.736C398.709 148.736 393.627 147.397 389.124 144.719C384.65 142.041 381.105 138.146 378.488 133.034C375.902 127.922 374.608 121.714 374.608 114.411C374.608 107.229 375.871 100.976 378.397 95.6502C380.923 90.2945 384.437 86.156 388.941 83.2346C393.445 80.2829 398.648 78.807 404.552 78.807C409.116 78.807 412.738 79.5678 415.415 81.0893C418.124 82.5804 420.193 84.2845 421.623 86.2016C423.084 88.0883 424.21 89.6402 425.001 90.8575H426.097V79.7199H436.504V151.84C436.504 157.865 435.134 162.764 432.396 166.538C429.687 170.342 426.036 173.126 421.441 174.891C416.876 176.686 411.794 177.584 406.195 177.584ZM405.83 139.059C410.151 139.059 413.803 138.07 416.785 136.092C419.767 134.114 422.034 131.269 423.586 127.557C425.138 123.844 425.914 119.401 425.914 114.228C425.914 109.177 425.153 104.718 423.632 100.854C422.11 96.9892 419.858 93.9614 416.876 91.7704C413.894 89.5794 410.212 88.4839 405.83 88.4839C401.265 88.4839 397.462 89.6402 394.419 91.9529C391.406 94.2657 389.139 97.3696 387.617 101.265C386.126 105.16 385.381 109.481 385.381 114.228C385.381 119.097 386.141 123.403 387.663 127.146C389.215 130.858 391.497 133.78 394.51 135.91C397.553 138.009 401.326 139.059 405.83 139.059ZM470.428 151.475C465.985 151.475 461.953 150.638 458.331 148.964C454.71 147.26 451.835 144.811 449.704 141.615C447.574 138.39 446.509 134.495 446.509 129.93C446.509 125.913 447.3 122.657 448.883 120.162C450.465 117.636 452.58 115.658 455.228 114.228C457.875 112.798 460.796 111.733 463.991 111.033C467.217 110.302 470.458 109.724 473.714 109.298C477.974 108.751 481.428 108.34 484.076 108.066C486.753 107.762 488.701 107.259 489.918 106.56C491.166 105.86 491.79 104.642 491.79 102.908V102.543C491.79 98.039 490.557 94.5395 488.092 92.0442C485.658 89.5489 481.961 88.3013 477 88.3013C471.858 88.3013 467.826 89.4272 464.904 91.6791C461.983 93.9309 459.929 96.3349 458.742 98.8911L448.518 95.2394C450.343 90.9792 452.778 87.6623 455.821 85.2887C458.894 82.8847 462.242 81.211 465.863 80.2677C469.515 79.2939 473.105 78.807 476.635 78.807C478.887 78.807 481.474 79.0809 484.395 79.6286C487.347 80.146 490.192 81.2262 492.931 82.8695C495.7 84.5127 497.997 86.9928 499.823 90.3097C501.649 93.6266 502.562 98.0695 502.562 103.638V149.832H491.79V140.337H491.242C490.512 141.859 489.294 143.487 487.59 145.221C485.886 146.956 483.619 148.432 480.789 149.649C477.959 150.866 474.505 151.475 470.428 151.475ZM472.071 141.798C476.331 141.798 479.922 140.961 482.843 139.287C485.795 137.614 488.016 135.453 489.507 132.806C491.029 130.158 491.79 127.374 491.79 124.453V114.593C491.333 115.141 490.329 115.643 488.777 116.099C487.256 116.525 485.491 116.906 483.482 117.241C481.504 117.545 479.572 117.819 477.685 118.062C475.829 118.275 474.323 118.458 473.166 118.61C470.367 118.975 467.75 119.569 465.315 120.39C462.911 121.181 460.964 122.383 459.473 123.996C458.012 125.579 457.282 127.739 457.282 130.478C457.282 134.221 458.666 137.051 461.435 138.968C464.235 140.855 467.78 141.798 472.071 141.798ZM546.288 79.7199V88.849H509.954V79.7199H546.288ZM520.544 62.9224H531.316V129.747C531.316 132.791 531.758 135.073 532.64 136.594C533.553 138.085 534.709 139.09 536.109 139.607C537.539 140.094 539.046 140.337 540.628 140.337C541.815 140.337 542.789 140.276 543.549 140.155C544.31 140.003 544.919 139.881 545.375 139.79L547.566 149.466C546.836 149.74 545.817 150.014 544.508 150.288C543.2 150.592 541.541 150.744 539.533 150.744C536.49 150.744 533.507 150.09 530.586 148.782C527.695 147.473 525.291 145.48 523.374 142.802C521.487 140.124 520.544 136.746 520.544 132.669V62.9224ZM584.708 151.292C577.953 151.292 572.125 149.801 567.226 146.819C562.357 143.806 558.599 139.607 555.951 134.221C553.334 128.804 552.026 122.505 552.026 115.323C552.026 108.142 553.334 101.812 555.951 96.3349C558.599 90.827 562.281 86.5363 566.998 83.4629C571.745 80.359 577.283 78.807 583.613 78.807C587.264 78.807 590.87 79.4156 594.431 80.6328C597.991 81.8501 601.232 83.828 604.153 86.5668C607.074 89.2751 609.402 92.8659 611.137 97.3391C612.871 101.812 613.739 107.32 613.739 113.863V118.427H559.694V109.116H602.784C602.784 105.16 601.993 101.63 600.41 98.5259C598.858 95.422 596.637 92.9724 593.746 91.177C590.885 89.3816 587.508 88.4839 583.613 88.4839C579.322 88.4839 575.609 89.5489 572.475 91.6791C569.371 93.7788 566.982 96.5175 565.309 99.8953C563.635 103.273 562.798 106.894 562.798 110.759V116.967C562.798 122.262 563.711 126.75 565.537 130.432C567.393 134.084 569.965 136.868 573.251 138.785C576.538 140.672 580.357 141.615 584.708 141.615C587.538 141.615 590.094 141.22 592.377 140.429C594.689 139.607 596.682 138.39 598.356 136.777C600.03 135.134 601.323 133.095 602.236 130.66L612.643 133.582C611.548 137.112 609.707 140.216 607.12 142.893C604.533 145.541 601.338 147.61 597.534 149.101C593.731 150.562 589.455 151.292 584.708 151.292Z" fill="#05445E"/>
<path fill-rule="evenodd" clip-rule="evenodd" d="M94.5737 157.073L109.465 140.708C110.448 139.574 111.393 138.667 112.489 137.495L121.333 127.669C122.315 126.535 123.336 125.628 124.356 124.456L130.252 117.918C131.726 116.519 132.029 116.028 133.2 114.629C134.221 113.458 135.204 112.626 136.224 111.417C137.207 110.245 138.189 109.376 139.248 108.204C145.597 100.985 154.026 92.3301 159.808 85.527C161.547 83.486 164.911 81.6341 163.777 77.1364C162.832 73.5081 159.657 72.9412 155.386 72.9412C138.756 73.0168 122.164 72.9034 105.534 72.9412C105.497 70.5979 106.668 66.4404 107.122 63.9459L116.117 18.4026C116.722 15.3412 117.326 12.242 117.931 9.21833C118.536 6.15691 119.783 2.37738 117.1 0.6388C112.829 -2.08246 109.352 4.45612 105.534 9.59628L94.5737 23.9963V157.036V157.073Z" fill="#05445E"/>
<path fill-rule="evenodd" clip-rule="evenodd" d="M40.6398 195.927C53.4146 205.981 77.1878 213.388 94.5737 212.784V156.355V156.129V157.073L83.613 171.473C79.7957 176.651 76.3186 183.19 72.0477 180.431C69.3642 178.73 70.5737 174.951 71.2162 171.851C71.8209 168.828 72.4256 165.729 73.0304 162.667L82.0256 117.124C82.517 114.629 83.6508 110.51 83.613 108.129C66.9831 108.166 50.391 108.053 33.7611 108.129C29.4524 108.129 26.3154 107.599 25.3705 103.933C24.1989 99.4357 27.6004 97.5837 29.339 95.5427C35.1217 88.7396 43.55 80.0845 49.8997 72.8656C50.9201 71.6939 51.9406 70.8246 52.9233 69.653C53.9437 68.4435 54.9264 67.612 55.9469 66.4404C57.1186 65.0798 57.4209 64.5506 58.8949 63.1522L64.791 56.6136C65.8115 55.442 66.8319 54.5349 67.8146 53.401L76.6587 43.5742C77.717 42.4026 78.6997 41.4955 79.6823 40.3616L94.5737 24.0341H94.4981C86.2209 22.7868 68.7973 27.1333 61.9186 29.6656C52.4697 33.1427 43.739 38.1317 37.1249 43.3475C4.09178 69.2372 -9.13656 112.362 6.62407 152.992C10.2524 162.327 15.506 170.755 20.7217 177.37C23.5563 180.922 26.9579 184.513 29.9437 187.234C33.3453 190.258 36.5201 193.433 40.6398 195.965V195.927Z" fill="#05445E"/>
</svg>
