<svg width="586" height="586" viewBox="0 0 586 586" fill="none" xmlns="http://www.w3.org/2000/svg">
<circle cx="293" cy="293" r="293" fill="#05445E"/>
<path d="M159.321 329V256.273H174.697V316.322H205.876V329H159.321ZM280.06 292.636C280.06 300.567 278.556 307.314 275.55 312.878C272.567 318.441 268.495 322.691 263.334 325.626C258.196 328.538 252.42 329.994 246.004 329.994C239.541 329.994 233.741 328.527 228.604 325.591C223.466 322.655 219.406 318.406 216.423 312.842C213.44 307.279 211.949 300.544 211.949 292.636C211.949 284.705 213.44 277.958 216.423 272.395C219.406 266.831 223.466 262.594 228.604 259.682C233.741 256.746 239.541 255.278 246.004 255.278C252.42 255.278 258.196 256.746 263.334 259.682C268.495 262.594 272.567 266.831 275.55 272.395C278.556 277.958 280.06 284.705 280.06 292.636ZM264.47 292.636C264.47 287.499 263.701 283.167 262.162 279.639C260.647 276.112 258.504 273.437 255.734 271.614C252.964 269.791 249.721 268.879 246.004 268.879C242.287 268.879 239.044 269.791 236.274 271.614C233.504 273.437 231.35 276.112 229.811 279.639C228.296 283.167 227.538 287.499 227.538 292.636C227.538 297.774 228.296 302.106 229.811 305.634C231.35 309.161 233.504 311.836 236.274 313.659C239.044 315.482 242.287 316.393 246.004 316.393C249.721 316.393 252.964 315.482 255.734 313.659C258.504 311.836 260.647 309.161 262.162 305.634C263.701 302.106 264.47 297.774 264.47 292.636ZM339.674 279.781C339.177 278.053 338.479 276.526 337.579 275.2C336.68 273.851 335.579 272.714 334.277 271.791C332.998 270.844 331.53 270.122 329.873 269.625C328.24 269.128 326.429 268.879 324.44 268.879C320.723 268.879 317.456 269.803 314.639 271.649C311.845 273.496 309.667 276.183 308.105 279.71C306.542 283.214 305.761 287.499 305.761 292.565C305.761 297.632 306.53 301.94 308.069 305.491C309.608 309.043 311.786 311.753 314.603 313.624C317.421 315.47 320.747 316.393 324.582 316.393C328.062 316.393 331.033 315.778 333.495 314.547C335.981 313.292 337.875 311.528 339.177 309.256C340.503 306.983 341.166 304.296 341.166 301.195L344.291 301.656H325.541V290.08H355.974V299.241C355.974 305.634 354.625 311.126 351.926 315.719C349.227 320.288 345.51 323.815 340.775 326.301C336.04 328.763 330.619 329.994 324.511 329.994C317.693 329.994 311.703 328.491 306.542 325.484C301.381 322.454 297.357 318.157 294.468 312.594C291.604 307.007 290.172 300.378 290.172 292.707C290.172 286.812 291.024 281.557 292.728 276.94C294.457 272.3 296.871 268.37 299.973 265.151C303.074 261.931 306.684 259.481 310.804 257.8C314.923 256.119 319.386 255.278 324.191 255.278C328.311 255.278 332.146 255.882 335.697 257.089C339.248 258.273 342.397 259.954 345.143 262.132C347.913 264.31 350.174 266.902 351.926 269.909C353.678 272.892 354.802 276.183 355.299 279.781H339.674ZM434.357 292.636C434.357 300.567 432.853 307.314 429.847 312.878C426.864 318.441 422.792 322.691 417.631 325.626C412.493 328.538 406.717 329.994 400.301 329.994C393.838 329.994 388.038 328.527 382.901 325.591C377.763 322.655 373.703 318.406 370.72 312.842C367.737 307.279 366.246 300.544 366.246 292.636C366.246 284.705 367.737 277.958 370.72 272.395C373.703 266.831 377.763 262.594 382.901 259.682C388.038 256.746 393.838 255.278 400.301 255.278C406.717 255.278 412.493 256.746 417.631 259.682C422.792 262.594 426.864 266.831 429.847 272.395C432.853 277.958 434.357 284.705 434.357 292.636ZM418.767 292.636C418.767 287.499 417.998 283.167 416.459 279.639C414.944 276.112 412.801 273.437 410.031 271.614C407.261 269.791 404.018 268.879 400.301 268.879C396.584 268.879 393.341 269.791 390.571 271.614C387.801 273.437 385.647 276.112 384.108 279.639C382.593 283.167 381.835 287.499 381.835 292.636C381.835 297.774 382.593 302.106 384.108 305.634C385.647 309.161 387.801 311.836 390.571 313.659C393.341 315.482 396.584 316.393 400.301 316.393C404.018 316.393 407.261 315.482 410.031 313.659C412.801 311.836 414.944 309.161 416.459 305.634C417.998 302.106 418.767 297.774 418.767 292.636Z" fill="white"/>
</svg>
