<svg width="614" height="213" viewBox="0 0 614 213" fill="none" xmlns="http://www.w3.org/2000/svg">
<path d="M196.791 149.832V56.3494H252.844V66.3914H208.112V97.9782H248.645V108.02H208.112V149.832H196.791Z" fill="#05445E"/>
<path d="M268.017 56.3494V149.832H256.697V56.3494H268.017Z" fill="#05445E"/>
<path d="M312.909 149.832H284.061V56.3494H314.187C323.255 56.3494 331.015 58.2209 337.466 61.9638C343.917 65.6763 348.862 71.0168 352.301 77.9854C355.739 84.9235 357.459 93.231 357.459 102.908C357.459 112.646 355.724 121.029 352.255 128.059C348.786 135.058 343.735 140.444 337.101 144.217C330.467 147.96 322.403 149.832 312.909 149.832ZM295.381 139.79H312.178C319.908 139.79 326.313 138.298 331.395 135.316C336.477 132.334 340.266 128.089 342.761 122.581C345.256 117.073 346.504 110.515 346.504 102.908C346.504 95.3612 345.271 88.8643 342.807 83.4172C340.342 77.9398 336.66 73.7404 331.76 70.819C326.861 67.8673 320.76 66.3914 313.456 66.3914H295.381V139.79Z" fill="#05445E"/>
<path d="M388.456 177.584C383.253 177.584 378.779 176.915 375.036 175.576C371.293 174.267 368.174 172.533 365.679 170.372C363.214 168.242 361.251 165.96 359.791 163.525L368.372 157.5C369.346 158.778 370.578 160.239 372.069 161.882C373.561 163.556 375.599 165.001 378.186 166.218C380.803 167.466 384.226 168.09 388.456 168.09C394.116 168.09 398.787 166.72 402.469 163.982C406.151 161.243 407.993 156.952 407.993 151.11V136.868H407.08C406.288 138.146 405.162 139.729 403.702 141.615C402.272 143.472 400.202 145.13 397.494 146.591C394.816 148.021 391.195 148.736 386.63 148.736C380.97 148.736 375.888 147.397 371.385 144.719C366.911 142.041 363.366 138.146 360.749 133.034C358.163 127.922 356.869 121.714 356.869 114.411C356.869 107.229 358.132 100.976 360.658 95.6502C363.184 90.2945 366.698 86.156 371.202 83.2346C375.706 80.2829 380.909 78.807 386.813 78.807C391.378 78.807 394.999 79.5678 397.677 81.0893C400.385 82.5804 402.454 84.2845 403.884 86.2016C405.345 88.0883 406.471 89.6402 407.262 90.8575H408.358V79.7199H418.765V151.84C418.765 157.865 417.396 162.764 414.657 166.538C411.948 170.342 408.297 173.126 403.702 174.891C399.137 176.686 394.055 177.584 388.456 177.584ZM388.091 139.059C392.412 139.059 396.064 138.07 399.046 136.092C402.028 134.114 404.295 131.269 405.847 127.557C407.399 123.844 408.175 119.401 408.175 114.228C408.175 109.177 407.414 104.718 405.893 100.854C404.371 96.9892 402.119 93.9614 399.137 91.7704C396.155 89.5794 392.473 88.4839 388.091 88.4839C383.526 88.4839 379.723 89.6402 376.68 91.9529C373.667 94.2657 371.4 97.3696 369.878 101.265C368.387 105.16 367.642 109.481 367.642 114.228C367.642 119.097 368.403 123.403 369.924 127.146C371.476 130.858 373.758 133.78 376.771 135.91C379.814 138.009 383.587 139.059 388.091 139.059Z" fill="#05445E"/>
<path d="M455.585 151.475C451.142 151.475 447.11 150.638 443.489 148.964C439.867 147.26 436.992 144.811 434.862 141.615C432.731 138.39 431.666 134.495 431.666 129.93C431.666 125.913 432.458 122.657 434.04 120.162C435.622 117.636 437.737 115.658 440.385 114.228C443.032 112.798 445.953 111.733 449.149 111.033C452.374 110.302 455.615 109.724 458.871 109.298C463.131 108.751 466.585 108.34 469.233 108.066C471.911 107.762 473.858 107.259 475.075 106.56C476.323 105.86 476.947 104.642 476.947 102.908V102.543C476.947 98.039 475.714 94.5395 473.249 92.0442C470.815 89.5489 467.118 88.3013 462.158 88.3013C457.015 88.3013 452.983 89.4272 450.062 91.6791C447.14 93.9309 445.086 96.3349 443.899 98.8911L433.675 95.2394C435.501 90.9792 437.935 87.6623 440.978 85.2887C444.052 82.8847 447.399 81.211 451.02 80.2677C454.672 79.2939 458.263 78.807 461.792 78.807C464.044 78.807 466.631 79.0809 469.552 79.6286C472.504 80.146 475.349 81.2262 478.088 82.8695C480.857 84.5127 483.155 86.9928 484.98 90.3097C486.806 93.6266 487.719 98.0695 487.719 103.638V149.832H476.947V140.337H476.399C475.669 141.859 474.451 143.487 472.747 145.221C471.043 146.956 468.776 148.432 465.946 149.649C463.116 150.866 459.662 151.475 455.585 151.475ZM457.228 141.798C461.488 141.798 465.079 140.961 468 139.287C470.952 137.614 473.173 135.453 474.664 132.806C476.186 130.158 476.947 127.374 476.947 124.453V114.593C476.49 115.141 475.486 115.643 473.934 116.099C472.413 116.525 470.648 116.906 468.639 117.241C466.661 117.545 464.729 117.819 462.842 118.062C460.986 118.275 459.48 118.458 458.323 118.61C455.524 118.975 452.907 119.569 450.472 120.39C448.068 121.181 446.121 122.383 444.63 123.996C443.169 125.579 442.439 127.739 442.439 130.478C442.439 134.221 443.823 137.051 446.592 138.968C449.392 140.855 452.937 141.798 457.228 141.798Z" fill="#05445E"/>
<path d="M540.241 79.7199V88.849H503.907V79.7199H540.241ZM514.497 62.9224H525.269V129.747C525.269 132.791 525.71 135.073 526.593 136.594C527.506 138.085 528.662 139.09 530.062 139.607C531.492 140.094 532.998 140.337 534.581 140.337C535.768 140.337 536.741 140.276 537.502 140.155C538.263 140.003 538.872 139.881 539.328 139.79L541.519 149.466C540.789 149.74 539.769 150.014 538.461 150.288C537.152 150.592 535.494 150.744 533.485 150.744C530.442 150.744 527.46 150.09 524.539 148.782C521.648 147.473 519.244 145.48 517.327 142.802C515.44 140.124 514.497 136.746 514.497 132.669V62.9224Z" fill="#05445E"/>
<path d="M577.432 151.292C570.676 151.292 564.849 149.801 559.95 146.819C555.081 143.806 551.323 139.607 548.675 134.221C546.058 128.804 544.75 122.505 544.75 115.323C544.75 108.142 546.058 101.812 548.675 96.3349C551.323 90.827 555.005 86.5363 559.722 83.4629C564.469 80.359 570.007 78.807 576.337 78.807C579.988 78.807 583.594 79.4156 587.155 80.6328C590.715 81.8501 593.956 83.828 596.877 86.5668C599.798 89.2751 602.126 92.8659 603.861 97.3391C605.595 101.812 606.463 107.32 606.463 113.863V118.427H552.418V109.116H595.508C595.508 105.16 594.716 101.63 593.134 98.5259C591.582 95.422 589.361 92.9724 586.47 91.177C583.609 89.3816 580.232 88.4839 576.337 88.4839C572.046 88.4839 568.333 89.5489 565.199 91.6791C562.095 93.7788 559.706 96.5175 558.033 99.8953C556.359 103.273 555.522 106.894 555.522 110.759V116.967C555.522 122.262 556.435 126.75 558.261 130.432C560.117 134.084 562.688 136.868 565.975 138.785C569.261 140.672 573.08 141.615 577.432 141.615C580.262 141.615 582.818 141.22 585.1 140.429C587.413 139.607 589.406 138.39 591.08 136.777C592.754 135.134 594.047 133.095 594.96 130.66L605.367 133.582C604.272 137.112 602.431 140.216 599.844 142.893C597.257 145.541 594.062 147.61 590.258 149.101C586.455 150.562 582.179 151.292 577.432 151.292Z" fill="#05445E"/>
<path fill-rule="evenodd" clip-rule="evenodd" d="M94.5737 157.073L109.465 140.708C110.448 139.574 111.393 138.667 112.489 137.495L121.333 127.669C122.315 126.535 123.336 125.628 124.356 124.456L130.252 117.918C131.726 116.519 132.029 116.028 133.2 114.629C134.221 113.458 135.204 112.626 136.224 111.417C137.207 110.245 138.189 109.376 139.248 108.204C145.597 100.985 154.026 92.3301 159.808 85.527C161.547 83.486 164.911 81.6341 163.777 77.1364C162.832 73.5081 159.657 72.9412 155.386 72.9412C138.756 73.0168 122.164 72.9034 105.534 72.9412C105.497 70.5979 106.668 66.4404 107.122 63.9459L116.117 18.4026C116.722 15.3412 117.326 12.242 117.931 9.21833C118.536 6.15691 119.783 2.37738 117.1 0.6388C112.829 -2.08246 109.352 4.45612 105.534 9.59628L94.5737 23.9963V157.036V157.073Z" fill="#05445E"/>
<path fill-rule="evenodd" clip-rule="evenodd" d="M40.6398 195.927C53.4146 205.981 77.1878 213.388 94.5737 212.784V156.355V156.129V157.073L83.613 171.473C79.7957 176.651 76.3186 183.19 72.0477 180.431C69.3642 178.73 70.5737 174.951 71.2162 171.851C71.8209 168.828 72.4256 165.729 73.0304 162.667L82.0256 117.124C82.517 114.629 83.6508 110.51 83.613 108.129C66.9831 108.166 50.391 108.053 33.7611 108.129C29.4524 108.129 26.3154 107.599 25.3705 103.933C24.1989 99.4357 27.6004 97.5837 29.339 95.5427C35.1217 88.7396 43.55 80.0845 49.8997 72.8656C50.9201 71.6939 51.9406 70.8246 52.9233 69.653C53.9437 68.4435 54.9264 67.612 55.9469 66.4404C57.1186 65.0798 57.4209 64.5506 58.8949 63.1522L64.791 56.6136C65.8115 55.442 66.8319 54.5349 67.8146 53.401L76.6587 43.5742C77.717 42.4026 78.6997 41.4955 79.6823 40.3616L94.5737 24.0341H94.4981C86.2209 22.7868 68.7973 27.1333 61.9186 29.6656C52.4697 33.1427 43.739 38.1317 37.1249 43.3475C4.09178 69.2372 -9.13656 112.362 6.62407 152.992C10.2524 162.327 15.506 170.755 20.7217 177.37C23.5563 180.922 26.9579 184.513 29.9437 187.234C33.3453 190.258 36.5201 193.433 40.6398 195.965V195.927Z" fill="#05445E"/>
</svg>
