<svg width="400" height="119" viewBox="0 0 400 119" fill="none" xmlns="http://www.w3.org/2000/svg">
<path d="M123.484 38.7577V54.2511H145.086V63.5468H123.484V88.2476H114.188V29.5503H149.159V38.7577H123.485H123.484ZM155.441 88.2476V29.5503H164.737V88.2476H155.441ZM193.862 29.5503C194.748 29.5503 195.928 29.7567 197.404 30.1705C198.879 30.5833 200.458 31.2476 202.14 32.1625C203.821 33.0774 205.533 34.2726 207.275 35.7481C209.015 37.2236 210.58 39.0534 211.966 41.2364C213.353 43.4204 214.489 45.9586 215.375 48.8502C216.26 51.7426 216.703 55.0777 216.703 58.8543C216.703 64.5202 215.876 69.2415 214.224 73.0201C212.571 76.7977 210.549 79.8073 208.159 82.0498C205.768 84.2924 203.216 85.886 200.501 86.8306C197.786 87.7743 195.366 88.2466 193.241 88.2466H174.296V29.5494H193.861L193.862 29.5503ZM190.675 78.9519C191.974 78.9519 193.568 78.6716 195.456 78.1109C197.344 77.5503 199.174 76.5173 200.945 75.0121C202.716 73.5068 204.236 71.4562 205.505 68.8594C206.774 66.2626 207.409 62.9276 207.409 58.8553C207.409 54.8415 206.76 51.5362 205.461 48.9394C204.162 46.3426 202.628 44.2911 200.857 42.7868C199.087 41.2815 197.286 40.2342 195.456 39.6438C193.626 39.0534 192.18 38.7587 191.118 38.7587H183.592V78.9529H190.675V78.9519Z" fill="white"/>
<path d="M270.019 46.2831V92.8517C270.019 95.6847 269.488 98.3554 268.426 100.864C267.363 103.372 265.903 105.556 264.043 107.415C262.184 109.274 260.001 110.75 257.492 111.841C254.984 112.933 252.313 113.479 249.48 113.479H241.512V104.184H249.48C251.074 104.184 252.549 103.889 253.907 103.298C255.264 102.708 256.445 101.897 257.448 100.864C258.451 99.8309 259.248 98.6357 259.838 97.2783C260.429 95.9208 260.723 94.4453 260.723 92.8517V85.4146C258.835 86.772 256.784 87.805 254.571 88.5135C252.357 89.222 250.07 89.5762 247.71 89.5762C244.641 89.5762 241.764 88.9858 239.078 87.806C236.393 86.6252 234.047 85.0172 232.04 82.981C230.033 80.9448 228.44 78.5842 227.259 75.8981C226.078 73.213 225.489 70.3359 225.489 67.2668C225.489 64.1976 226.079 61.3052 227.259 58.5903C228.44 55.8754 230.033 53.5148 232.04 51.5074C234.047 49.5001 236.393 47.9218 239.078 46.7708C241.764 45.6197 244.641 45.0447 247.71 45.0447C252.55 45.0447 256.887 46.4309 260.724 49.2053V46.2841H270.02L270.019 46.2831ZM247.709 80.2796C249.479 80.2796 251.162 79.9397 252.755 79.262C254.349 78.5832 255.736 77.654 256.917 76.4732C258.098 75.2924 259.027 73.9061 259.706 72.3125C260.385 70.7189 260.724 69.036 260.724 67.2658C260.724 65.4956 260.385 63.8127 259.706 62.2191C259.027 60.6255 258.098 59.2537 256.917 58.1017C255.736 56.9506 254.349 56.0357 252.755 55.357C251.162 54.6783 249.48 54.3394 247.709 54.3394C245.939 54.3394 244.271 54.6783 242.706 55.357C241.142 56.0357 239.771 56.9506 238.59 58.1017C237.409 59.2527 236.48 60.6255 235.801 62.2191C235.122 63.8127 234.783 65.4946 234.783 67.2658C234.783 69.036 235.123 70.7036 235.801 72.2684C236.48 73.8322 237.395 75.2194 238.546 76.429C239.697 77.6386 241.068 78.5832 242.662 79.262C244.256 79.9407 245.939 80.2796 247.709 80.2796ZM321.542 46.2831V88.2476H312.247V85.4146C310.358 86.772 308.307 87.805 306.094 88.5135C303.88 89.222 301.594 89.5762 299.233 89.5762C296.164 89.5762 293.287 88.9858 290.602 87.806C287.916 86.6252 285.57 85.0316 283.563 83.0252C281.556 81.0178 279.963 78.6572 278.782 75.9423C277.601 73.2274 277.012 70.3349 277.012 67.2668C277.012 64.1976 277.602 61.3052 278.782 58.5903C279.962 55.8754 281.555 53.5148 283.563 51.5074C285.57 49.5001 287.916 47.9218 290.602 46.7708C293.287 45.6197 296.164 45.0447 299.233 45.0447C304.073 45.0447 308.41 46.4309 312.248 49.2053V46.2841H321.543L321.542 46.2831ZM299.232 80.2796C301.002 80.2796 302.685 79.9397 304.279 79.262C305.872 78.5832 307.258 77.654 308.439 76.4732C309.62 75.2924 310.549 73.9061 311.228 72.3125C311.907 70.7189 312.246 69.036 312.246 67.2658C312.246 65.4956 311.906 63.8127 311.228 62.2191C310.549 60.6255 309.619 59.2537 308.439 58.1017C307.258 56.9506 305.872 56.0357 304.279 55.357C302.685 54.6783 301.002 54.3394 299.232 54.3394C297.462 54.3394 295.794 54.6783 294.229 55.357C292.666 56.0357 291.294 56.9506 290.113 58.1017C288.932 59.2527 288.003 60.6255 287.324 62.2191C286.645 63.8127 286.306 65.4946 286.306 67.2658C286.306 69.036 286.645 70.718 287.324 72.3125C288.003 73.9061 288.932 75.2924 290.113 76.4732C291.294 77.654 292.666 78.5832 294.229 79.262C295.794 79.9407 297.462 80.2796 299.232 80.2796ZM342.434 55.5788V76.118C342.434 76.9445 342.684 77.6232 343.186 78.1541C343.688 78.685 344.352 78.9509 345.178 78.9509H348.72V88.2466H341.018C338.775 88.2466 336.9 87.4796 335.396 85.9445C333.891 84.4104 333.138 82.5509 333.138 80.3669V55.5778H328.003V46.2821H333.138V35.5695H342.434V46.2821H350.844V55.5778H342.434V55.5788ZM389.619 71.0722H364.741C365.568 73.8466 367.132 76.0748 369.434 77.7567C371.736 79.4386 374.303 80.2796 377.136 80.2796C379.438 80.2796 381.578 79.7189 383.554 78.5976C385.531 77.4754 387.11 75.9413 388.291 73.9944L394.842 80.8114C392.718 83.5858 390.12 85.7391 387.051 87.2741C383.982 88.8082 380.676 89.5762 377.135 89.5762C374.066 89.5762 371.189 88.9858 368.504 87.806C365.818 86.6252 363.472 85.0316 361.465 83.0252C359.458 81.0178 357.865 78.6572 356.684 75.9423C355.503 73.2274 354.914 70.3349 354.914 67.2668C354.914 64.1976 355.504 61.3052 356.684 58.5903C357.865 55.8754 359.457 53.5148 361.465 51.5074C363.472 49.5001 365.818 47.9218 368.504 46.7708C371.189 45.6197 374.066 45.0447 377.135 45.0447C380.264 45.0447 383.17 45.6351 385.856 46.815C388.542 47.9958 390.902 49.5884 392.938 51.5957C394.975 53.6021 396.568 55.9484 397.719 58.6335C398.87 61.3186 399.445 64.1957 399.445 67.2658C399.445 68.6232 399.327 69.8626 399.091 70.9839H389.618V71.0722H389.619ZM377.135 54.3394C374.656 54.3394 372.369 55.0028 370.274 56.3314C368.179 57.6591 366.57 59.4447 365.449 61.6873H388.821C387.758 59.4447 386.18 57.6591 384.084 56.3314C381.99 55.0037 379.673 54.3394 377.135 54.3394Z" fill="white"/>
<path fill-rule="evenodd" clip-rule="evenodd" d="M52.4661 87.108L60.7326 78.0351C61.2789 77.4005 61.8059 76.9071 62.4001 76.2505L67.3125 70.7957C67.8529 70.1621 68.4222 69.6581 68.9829 69.0159L72.2584 65.3785C73.0667 64.6105 73.2337 64.3225 73.8932 63.5583C74.452 62.9113 75.0059 62.4466 75.5646 61.7766C76.1061 61.1276 76.659 60.6476 77.234 59.9948C80.763 55.9954 85.4392 51.1906 88.6436 47.4198C89.6046 46.2889 91.4833 45.254 90.842 42.7657C90.3208 40.7449 88.5649 40.4396 86.1822 40.4482C76.9662 40.4818 67.7473 40.4194 58.5323 40.4511C58.5131 39.1436 59.1515 36.8502 59.4146 35.4697L64.4104 10.2025C64.7445 8.50044 65.0862 6.77723 65.4212 5.10587C65.763 3.40571 66.4389 1.30716 64.9518 0.355799C62.5873 -1.15716 60.652 2.46875 58.5429 5.33147L52.4661 13.3119V87.1071V87.108Z" fill="#AEF66A"/>
<path fill-rule="evenodd" clip-rule="evenodd" d="M22.5506 108.669C29.6363 114.248 42.8133 118.355 52.4708 118.012L52.4651 86.7145V86.583V87.1071L46.3883 95.0876C44.2792 97.9503 42.3438 101.576 39.9793 100.063C38.4923 99.1119 39.1681 97.0143 39.5099 95.3132C39.8459 93.6418 40.1877 91.9186 40.5208 90.2165L45.5176 64.9494C45.7806 63.5679 46.419 61.2745 46.3998 59.9679C37.1838 59.9986 27.9649 59.9362 18.7499 59.9708C16.3672 59.9794 14.6114 59.6742 14.0901 57.6534C13.4488 55.165 15.3275 54.1302 16.2885 52.9993C19.493 49.2284 24.1691 44.4236 27.6981 40.4243C28.2731 39.7724 28.8261 39.2924 29.3675 38.6435C29.9253 37.9734 30.4801 37.5097 31.0389 36.8617C31.6984 36.0966 31.8654 35.8086 32.6737 35.0416L35.9493 31.4041C36.5099 30.7619 37.0792 30.2579 37.6197 29.6243L42.532 24.1696C43.1262 23.5129 43.6542 23.0195 44.1995 22.3849L52.4593 13.3206L52.4209 13.3139C47.8379 12.6169 38.1582 15.0419 34.3489 16.4483C29.1016 18.3856 24.2709 21.1417 20.5893 24.0304C2.27153 38.3977 -5.0619 62.3074 3.66641 84.8473C5.67473 90.0322 8.58737 94.7007 11.4904 98.3689C13.0581 100.35 14.9435 102.337 16.6139 103.833C18.4974 105.519 20.2571 107.268 22.5506 108.67V108.669Z" fill="#AEF66A"/>
</svg>
