<svg width="91" height="119" viewBox="0 0 91 119" fill="none" xmlns="http://www.w3.org/2000/svg">
<path fill-rule="evenodd" clip-rule="evenodd" d="M52.4661 87.108L60.7326 78.0351C61.2789 77.4005 61.8059 76.9071 62.4001 76.2505L67.3125 70.7957C67.8529 70.1621 68.4222 69.6581 68.9829 69.0159L72.2584 65.3785C73.0667 64.6105 73.2337 64.3225 73.8932 63.5583C74.452 62.9113 75.0059 62.4466 75.5646 61.7766C76.1061 61.1276 76.659 60.6476 77.234 59.9948C80.763 55.9954 85.4392 51.1906 88.6436 47.4198C89.6046 46.2889 91.4833 45.254 90.842 42.7657C90.3208 40.7449 88.5649 40.4396 86.1822 40.4482C76.9662 40.4818 67.7473 40.4194 58.5323 40.4511C58.5131 39.1436 59.1515 36.8502 59.4146 35.4697L64.4104 10.2025C64.7445 8.50044 65.0862 6.77723 65.4212 5.10587C65.763 3.40571 66.4389 1.30716 64.9518 0.355799C62.5873 -1.15716 60.652 2.46875 58.5429 5.33147L52.4661 13.3119V87.1071V87.108Z" fill="#AEF66A"/>
<path fill-rule="evenodd" clip-rule="evenodd" d="M22.5506 108.669C29.6363 114.248 42.8133 118.355 52.4708 118.012L52.4651 86.7145V86.583V87.1071L46.3883 95.0876C44.2792 97.9503 42.3438 101.576 39.9793 100.063C38.4923 99.1119 39.1681 97.0143 39.5099 95.3132C39.8459 93.6418 40.1877 91.9186 40.5208 90.2165L45.5176 64.9494C45.7806 63.5679 46.419 61.2745 46.3998 59.9679C37.1838 59.9986 27.9649 59.9362 18.7499 59.9708C16.3672 59.9794 14.6114 59.6742 14.0901 57.6534C13.4488 55.165 15.3275 54.1302 16.2885 52.9993C19.493 49.2284 24.1691 44.4236 27.6981 40.4243C28.2731 39.7724 28.8261 39.2924 29.3675 38.6435C29.9253 37.9734 30.4801 37.5097 31.0389 36.8617C31.6984 36.0966 31.8654 35.8086 32.6737 35.0416L35.9493 31.4041C36.5099 30.7619 37.0792 30.2579 37.6197 29.6243L42.532 24.1696C43.1262 23.5129 43.6542 23.0195 44.1995 22.3849L52.4593 13.3206L52.4209 13.3139C47.8379 12.6169 38.1582 15.0419 34.3489 16.4483C29.1016 18.3856 24.2709 21.1417 20.5893 24.0304C2.27153 38.3977 -5.0619 62.3074 3.66641 84.8473C5.67473 90.0322 8.58737 94.7007 11.4904 98.3689C13.0581 100.35 14.9435 102.337 16.6139 103.833C18.4974 105.519 20.2571 107.268 22.5506 108.67V108.669Z" fill="#AEF66A"/>
</svg>
